<svg width="11" height="5" viewBox="0 0 11 5" fill="none" xmlns="http://www.w3.org/2000/svg">
<mask id="path-1-inside-1_1_33" fill="white">
<path d="M9.49415 0L10.1 0.539062L5.10345 5L0.106934 0.539062L0.709639 0L5.10345 3.91927L9.49415 0Z"/>
</mask>
<path d="M9.49415 0L10.1 0.539062L5.10345 5L0.106934 0.539062L0.709639 0L5.10345 3.91927L9.49415 0Z" fill="#4769AC"/>
<path d="M9.49415 0L16.1416 -7.47073L9.48356 -13.395L2.83493 -7.46021L9.49415 0ZM10.1 0.539062L16.7599 7.99862L25.1292 0.52644L16.7474 -6.93167L10.1 0.539062ZM5.10345 5L-1.5565 12.4596L5.10345 18.4056L11.7634 12.4596L5.10345 5ZM0.106934 0.539062L-6.55964 -6.91458L-14.9007 0.54572L-6.55302 7.99862L0.106934 0.539062ZM0.709639 0L7.36622 -7.46256L0.700662 -13.4082L-5.95693 -7.45364L0.709639 0ZM5.10345 3.91927L-1.55313 11.3818L5.10582 17.3216L11.7627 11.3795L5.10345 3.91927ZM2.84673 7.47073L3.45256 8.0098L16.7474 -6.93167L16.1416 -7.47073L2.84673 7.47073ZM3.44002 -6.92049L-1.5565 -2.45956L11.7634 12.4596L16.7599 7.99862L3.44002 -6.92049ZM11.7634 -2.45956L6.76689 -6.92049L-6.55302 7.99862L-1.5565 12.4596L11.7634 -2.45956ZM6.77351 7.99271L7.37621 7.45364L-5.95693 -7.45364L-6.55964 -6.91458L6.77351 7.99271ZM-5.94695 7.46256L-1.55313 11.3818L11.76 -3.54329L7.36622 -7.46256L-5.94695 7.46256ZM11.7627 11.3795L16.1534 7.46021L2.83493 -7.46021L-1.55577 -3.54094L11.7627 11.3795Z" fill="black" mask="url(#path-1-inside-1_1_33)"/>
</svg>
